HIERARCHY
ROOT Hips
{
	OFFSET 0.00000 0.00000 0.00000
	CHANNELS 6 Xposition Yposition Zposition Zrotation Yrotation Xrotation 
	JOINT LHipJoint
	{
		OFFSET 0 0 0
		CHANNELS 3 Zrotation Yrotation Xrotation
		JOINT LeftHip
		{
			OFFSET 1.57358 -1.76629 0.73362
			CHANNELS 3 Zrotation Yrotation Xrotation
			JOINT LeftKnee
			{
				OFFSET 2.40600 -6.61045 0.00000
				CHANNELS 3 Zrotation Yrotation Xrotation
				JOINT LeftAnkle
				{
					OFFSET 2.66168 -7.31291 0.00000
					CHANNELS 3 Zrotation Yrotation Xrotation
					JOINT LeftToe
					{
						OFFSET 0.20870 -0.57341 2.12506
						CHANNELS 3 Zrotation Yrotation Xrotation
						End Site
						{
							OFFSET 0.00000 -0.00000 1.10557
						}
					}
				}
			}
		}
	}
	JOINT RHipJoint
	{
		OFFSET 0 0 0
		CHANNELS 3 Zrotation Yrotation Xrotation
		JOINT RightHip
		{
			OFFSET -1.49299 -1.76629 0.73362
			CHANNELS 3 Zrotation Yrotation Xrotation
			JOINT RightKnee
			{
				OFFSET -2.43663 -6.69460 0.00000
				CHANNELS 3 Zrotation Yrotation Xrotation
				JOINT RightAnkle
				{
					OFFSET -2.62959 -7.22474 0.00000
					CHANNELS 3 Zrotation Yrotation Xrotation
					JOINT RightToe
					{
						OFFSET -0.25784 -0.70841 2.21862
						CHANNELS 3 Zrotation Yrotation Xrotation
						End Site
						{
							OFFSET -0.00000 -0.00000 1.16452
						}
					}
				}
			}
		}
	}
	JOINT lowerback
	{
		OFFSET 0 0 0
		CHANNELS 3 Zrotation Yrotation Xrotation
		JOINT Chest
		{
			OFFSET -0.00034 2.12399 -0.25450
			CHANNELS 3 Zrotation Yrotation Xrotation
			JOINT Chest2
			{
				OFFSET 0.05594 2.14379 -0.03318
				CHANNELS 3 Zrotation Yrotation Xrotation
				JOINT lowerneck
				{
					OFFSET 0 0 0
					CHANNELS 3 Zrotation Yrotation Xrotation
					JOINT Neck
					{
						OFFSET -0.09835 1.62725 0.24211
						CHANNELS 3 Zrotation Yrotation Xrotation
						JOINT Head
						{
							OFFSET 0.10849 1.66041 -0.22648
							CHANNELS 3 Zrotation Yrotation Xrotation
							End Site
							{
								OFFSET 0.04385 1.68267 -0.10541
							}
						}
					}
				}
				JOINT LeftCollar
				{
					OFFSET 0 0 0
					CHANNELS 3 Zrotation Yrotation Xrotation
					JOINT LeftShoulder
					{
						OFFSET 3.29108 0.79398 -0.68179
CHANNELS 3 Zrotation Xrotation Yrotation
						JOINT LeftElbow
						{
OFFSET 0 -5.153100 -0.000000
CHANNELS 3 Zrotation Xrotation Yrotation
							JOINT LeftWrist
							{
OFFSET 0 -3.751380 -0.000000
CHANNELS 3 Zrotation Xrotation Yrotation
								JOINT lhand
								{
									OFFSET 0 0 0
CHANNELS 3 Zrotation Xrotation Yrotation
									JOINT LFingers
									{
OFFSET 0 -0.529170 0.000000
CHANNELS 3 Zrotation Xrotation Yrotation
										End Site
										{
OFFSET 0 -0.426630 0.000000
										}
									}
								}
								JOINT LThumb
								{
OFFSET 0 0.000000 0.000000
CHANNELS 3 Zrotation Xrotation Yrotation
									End Site
									{
OFFSET 0 -0.433150 0.433150
									}
								}
							}
						}
					}
				}
				JOINT RightCollar
				{
					OFFSET 0 0 0
					CHANNELS 3 Zrotation Yrotation Xrotation
					JOINT RightShoulder
					{
						OFFSET -3.07414 1.06285 -0.44338
CHANNELS 3 Zrotation Xrotation Yrotation
						JOINT RightElbow
						{
OFFSET 0 -5.296130 0.000000
CHANNELS 3 Zrotation Xrotation Yrotation
							JOINT RightWrist
							{
OFFSET 0 -3.761440 -0.000000
CHANNELS 3 Zrotation Xrotation Yrotation
								JOINT rhand
								{
									OFFSET 0 0 0
CHANNELS 3 Zrotation Xrotation Yrotation
									JOINT RFingers
									{
OFFSET 0 -0.747320 0.000000
CHANNELS 3 Zrotation Xrotation Yrotation
										End Site
										{
OFFSET 0 -0.602510 0.000000
										}
									}
								}
								JOINT RThumb
								{
OFFSET 0 0.000000 0.000000
CHANNELS 3 Zrotation Xrotation Yrotation
									End Site
									{
OFFSET 0 -0.611710 0.611710
									}
								}
							}
						}
					}
				}
			}
		}
	}
}
MOTION
Frames: 5
Frame Time: .0083333
0.5519 17.5175 -28.3598 6.3057 -2.5056 10.5824 0.0000 0.0000 0.0000 -29.7804 1.4883 20.1680 0.7126 5.3950 15.0386 4.0116 3.1234 37.2961 0.0000 0.0132 0.0362 0.0000 0.0000 0.0000 9.4723 13.3741 -52.5295 -7.9979 -16.1177 52.5552 -0.0149 -2.2080 2.4889 -0.6534 5.1704 -14.3951 -7.0428 -1.8774 8.3934 1.9831 -3.1140 -0.7059 6.4415 -1.3221 -4.9734 -9.8460 -1.0707 -19.4004 6.4728 0.1790 10.0938 3.7071 0.2441 6.1967 -0.0000 0.0000 0.0000 5.4188 -2.7835 -42.5928 156.9961 -34.0931 112.8595 14.6186 -23.1228 -4.3802 0.0 0.0 0.0 -7.1250 0.0 0.0 -9.8979 34.3736 -2.614 -0.0000 0.0000 0.0000 -8.8415 44.7115 36.7608 -130.0421 -52.9785 -93.8595 -21.5688 -26.492 -31.9355 0.0 0.0 0.0 7.1250 0.0 -0.0 5.7287 -3.7011 6.1164
0.5489 17.5735 -27.7427 6.7408 -2.8386 10.7271 0.0000 0.0000 0.0000 -30.4436 1.3781 21.0084 0.7515 5.5369 15.4464 3.7055 1.7616 36.0943 0.0775 -1.7962 -4.9427 0.0000 0.0000 0.0000 9.2235 13.5253 -51.4057 -6.3294 -14.7401 46.2898 -0.0615 -2.7274 4.5169 -0.5531 4.7640 -13.2368 -7.2248 -1.9218 8.3216 1.8712 -3.1944 -0.7782 6.4330 -1.3553 -4.9937 -9.7217 -1.1813 -19.5594 6.1337 0.0716 9.7083 3.5594 0.1760 6.1077 -0.0000 -0.0000 0.0000 6.2317 -2.7162 -43.109 156.8090 -34.2971 112.7543 13.844 -22.6238 -5.2377 0.0 0.0 0.0 -7.1250 0.0 0.0 -10.6551 35.2079 -2.6 -0.0000 -0.0000 0.0000 -8.4771 44.8365 35.9514 -130.5349 -52.7775 -94.2524 -21.9579 -26.5866 -31.9388 0.0 0.0 0.0 7.1250 0.0 -0.0 5.5098 -3.7873 5.8882
0.5420 17.6261 -27.1221 7.2865 -3.0059 10.8294 0.0000 0.0000 0.0000 -31.1957 1.0586 21.5237 0.8615 5.9189 16.5492 3.6156 0.9000 35.8629 0.2296 -3.0843 -8.5136 0.0000 0.0000 0.0000 8.8526 13.6185 -50.2919 -4.9751 -13.3557 40.7152 -0.1109 -3.2867 6.0025 -0.5013 4.5390 -12.5982 -7.3711 -2.0364 8.0888 1.5836 -3.3568 -0.7152 6.2107 -1.4475 -4.7783 -9.5724 -1.2164 -19.7469 6.0698 0.0207 9.3294 3.5052 0.1598 6.0202 0.0000 0.0000 0.0000 7.2058 -2.7631 -43.399 156.4202 -34.7168 112.5341 12.6823 -22.4521 -6.7871 0.0 0.0 0.0 -7.1250 0.0 0.0 -11.8699 36.7042 -2.4647 0.0000 0.0000 0.0000 -7.757 44.5029 35.0328 -130.5909 -52.7544 -94.297 -21.5931 -26.1645 -32.0881 0.0 0.0 0.0 7.1250 0.0 -0.0 5.7373 -3.8614 6.1407
0.5291 17.6621 -26.5057 7.8536 -3.1997 10.8379 0.0000 0.0000 0.0000 -31.8602 0.9503 21.8813 1.0165 6.4145 17.9918 3.7847 0.1550 36.9194 0.2444 -3.1814 -8.7843 0.0000 0.0000 0.0000 8.6232 13.6973 -48.8371 -3.7628 -11.8379 35.1608 -0.1582 -4.1538 7.2098 -0.5494 4.7485 -13.1925 -7.7691 -2.0780 8.0739 1.4060 -3.4579 -0.6898 6.2558 -1.4930 -4.7163 -9.6760 -1.2496 -20.0467 6.1207 0.0263 9.2969 3.5411 0.1672 6.0572 0.0000 0.0000 0.0000 7.8575 -2.8569 -43.775 155.7506 -35.4269 112.1493 12.6225 -22.4876 -6.3775 0.0 0.0 0.0 -7.1250 0.0 0.0 -11.8468 36.2905 -2.5818 0.0000 0.0000 0.0000 -7.2742 44.083 34.2289 -130.5541 -52.7696 -94.2677 -21.6163 -25.9228 -32.2437 0.0 0.0 0.0 7.1250 0.0 -0.0 5.7472 -4.0246 6.1667
0.5161 17.6814 -25.8939 8.4985 -3.0220 10.5381 0.0000 0.0000 0.0000 -32.4106 0.8584 22.1917 1.2616 7.1199 20.0712 4.4815 0.0049 40.2780 0.0031 0.3589 0.9860 0.0000 0.0000 0.0000 8.4136 13.3449 -47.0699 -2.8217 -10.4006 30.2840 -0.1419 -5.8091 7.3162 -0.5266 4.6505 -12.9143 -8.1821 -2.1265 8.5447 1.2174 -3.6116 -0.6513 6.3317 -1.5516 -4.9054 -9.9272 -1.1770 -20.9570 6.4375 0.2165 10.1804 3.7285 0.2751 6.4717 0.0000 0.0000 0.0000 8.3086 -2.7346 -44.2908 154.9124 -36.2934 111.6583 13.047 -22.5083 -5.3379 0.0 0.0 0.0 -7.1250 0.0 0.0 -11.3235 35.2698 -2.751 0.0000 0.0000 0.0000 -6.5974 43.6477 33.236 -130.4447 -52.8146 -94.1805 -21.3725 -25.3208 -32.0933 0.0 0.0 0.0 7.1250 0.0 -0.0 5.8622 -3.82 6.2718
